# xmcd
#
# Track frame offsets:
#	150
#	8436
#	13348
#	19069
#	26906
#	38096
#	45819
#	51141
#	62690
#	68989
#	78289
#	94413
#	107688
#	111662
#	118284
#	125851
#	133912
#	147486
#	156860
#	162948
#	172622
#	180310
#	192646
#	203596
#
# Disc length: 2744 seconds
#
# Revision: 0
# Processed by: cddbd v1.5.2PL0 Copyright (c) Steve Scherf et al.
# Submitted via: audiograbber 1.83.01
#
DISCID=500ab618
DTITLE=Frankfurter Extrachor - Musik zur weihnachtszeit
DYEAR=1900
DGENRE=Weihnachten
TTITLE0=Guten Abend, schön Abend
TTITLE1=Ein tännlein schlief
TTITLE2=Auf die Straßen fiel ein Schnee
TTITLE3=Es ist für uns eineZeit angekommen
TTITLE4=Grave aus dem Konzert B-Dur
TTITLE5=Ich brach drei dürre Reiselein
TTITLE6=o Tannenbaum
TTITLE7=Dolce aus der Sonate in F-Dur
TTITLE8=Maria durch ein Dornwald ging
TTITLE9=Laudamus te
TTITLE10=Machet die Tore weit
TTITLE11=Übers Gebirge Maria geht
TTITLE12=Hob'n mir a nigendl
TTITLE13=Gaudere
TTITLE14=Vom Himmel hoch, ihr Englein kommt
TTITLE15=Vivace aus der Sonate in F-Dur
TTITLE16=Vom Himmel hoch
TTITLE17=Als ich bei meinen Schafen wacht'
TTITLE18=Kindchen zart
TTITLE19=Darkecho cloikcino
TTITLE20=Adeste fidelis
TTITLE21=Psalite
TTITLE22=Laßt uns lauschen
TTITLE23=Ausklang
EXTD=
EXTT0=
EXTT1=
EXTT2=
EXTT3=
EXTT4=
EXTT5=
EXTT6=
EXTT7=
EXTT8=
EXTT9=
EXTT10=
EXTT11=
EXTT12=
EXTT13=
EXTT14=
EXTT15=
EXTT16=
EXTT17=
EXTT18=
EXTT19=
EXTT20=
EXTT21=
EXTT22=
EXTT23=
PLAYORDER=
